<svg width="79" height="79" viewBox="0 0 79 79" fill="none" xmlns="http://www.w3.org/2000/svg">
<path d="M50.1979 62.5416C48.8384 62.5416 47.7291 61.4323 47.7291 60.0729C47.7291 58.7134 48.8384 57.6041 50.1979 57.6041C51.5573 57.6041 52.6666 58.7134 52.6666 60.0729C52.6666 61.4323 51.5573 62.5416 50.1979 62.5416Z" fill="#B2A278"/>
<path d="M65.0959 62.5416C63.7365 62.5416 62.6272 61.4323 62.6272 60.0729C62.6272 58.7134 63.7365 57.6041 65.0959 57.6041C66.4554 57.6041 67.5647 58.7134 67.5647 60.0729C67.5647 61.4323 66.4554 62.5416 65.0959 62.5416Z" fill="#B2A278"/>
<path d="M57.6239 72.4068C55.4975 72.4068 53.3645 71.5971 51.745 69.9776C51.1031 69.3357 51.1031 68.2922 51.745 67.6504C52.3868 67.0085 53.4303 67.0085 54.0722 67.6504C56.034 69.6122 59.2137 69.6122 61.1756 67.6504C61.8175 67.0085 62.8609 67.0085 63.5028 67.6504C64.1447 68.2922 64.1447 69.3357 63.5028 69.9776C61.8833 71.5971 59.7503 72.4068 57.6239 72.4068Z" fill="#B2A278"/>
<path d="M37.8575 57.6009C37.3538 57.6009 36.8535 57.3705 36.5342 56.936C35.9944 56.2052 36.1458 55.1815 36.8733 54.6417C37.1629 54.4277 44.0886 49.375 57.6272 49.375C71.1658 49.375 78.0586 54.4277 78.345 54.6417C79.0724 55.1881 79.2173 56.2151 78.6774 56.9393C78.1376 57.67 77.1073 57.8148 76.3765 57.2816C76.3107 57.2322 69.9776 52.6667 57.6239 52.6667C45.267 52.6667 38.8976 57.2355 38.8318 57.2816C38.5388 57.4988 38.1965 57.6009 37.8575 57.6009Z" fill="#B2A278"/>
<path d="M57.6239 79C52.2453 79 47.762 77.1698 44.2926 73.5622C40.2603 69.3719 37.8541 62.8149 37.8541 56.0373C37.8541 55.8991 37.8706 55.7641 37.9035 55.6358L40.2867 44.8621C40.9713 41.7713 43.4039 39.319 46.4882 38.6179L55.7871 36.4881C56.9886 36.2116 58.2625 36.2182 59.4705 36.4914L68.7267 38.6179C71.811 39.3256 74.2435 41.7778 74.9216 44.8621L77.3179 55.6851C77.3443 55.8036 77.3574 55.9221 77.3574 56.0406V56.5377C77.3574 61.5641 75.6754 68.6774 70.9584 73.5655C67.4725 77.1698 62.986 79 57.6239 79ZM41.1458 56.2085C41.1919 60.8267 42.66 67.1105 46.6659 71.2778C49.4902 74.2172 53.1735 75.7083 57.6239 75.7083C62.0611 75.7083 65.7477 74.2172 68.5884 71.2712C72.6273 67.0908 74.0625 60.9156 74.0625 56.5311V56.2118L71.7056 45.5633C71.2975 43.7101 69.8426 42.2387 67.9893 41.8141L58.7299 39.6876C58.0024 39.5198 57.2453 39.5165 56.5179 39.6843L47.2189 41.8141C45.369 42.2354 43.9108 43.7068 43.4993 45.5633L41.1458 56.2085Z" fill="#B2A278"/>
<path d="M34.5625 69.125H4.9375C2.21529 69.125 0 66.9097 0 64.1875V4.9375C0 2.21529 2.21529 0 4.9375 0H64.1875C66.9097 0 69.125 2.21529 69.125 4.9375V31.2708C69.125 32.1793 68.3877 32.9167 67.4792 32.9167C66.5707 32.9167 65.8333 32.1793 65.8333 31.2708V4.9375C65.8333 4.03229 65.0927 3.29167 64.1875 3.29167H4.9375C4.03229 3.29167 3.29167 4.03229 3.29167 4.9375V64.1875C3.29167 65.0927 4.03229 65.8333 4.9375 65.8333H34.5625C35.471 65.8333 36.2083 66.5707 36.2083 67.4792C36.2083 68.3877 35.471 69.125 34.5625 69.125Z" fill="#B2A278"/>
<path d="M47.7292 29.625C47.3803 29.625 47.0313 29.5131 46.7417 29.2958L34.5625 20.1615L22.3833 29.2958C21.8896 29.6645 21.2148 29.727 20.6618 29.4505C20.1022 29.1707 19.75 28.6013 19.75 27.9792V1.64583C19.75 0.737333 20.4873 0 21.3958 0H47.7292C48.6377 0 49.375 0.737333 49.375 1.64583V27.9792C49.375 28.6013 49.0228 29.1707 48.4665 29.4505C48.2328 29.5658 47.9793 29.625 47.7292 29.625ZM34.5625 16.4583C34.9081 16.4583 35.257 16.567 35.55 16.7875L46.0833 24.6875V3.29167H23.0417V24.6875L33.575 16.7875C33.868 16.567 34.2169 16.4583 34.5625 16.4583Z" fill="#B2A278"/>
</svg>
