<svg width="94" height="78" viewBox="0 0 94 78" fill="none" xmlns="http://www.w3.org/2000/svg">
<path d="M89.2968 23.9385H80.2761L77.7443 4.83434C77.3818 2.26937 75.0263 0.471001 72.4564 0.797478L4.08364 9.85887C2.84455 10.025 1.72246 10.6776 0.96545 11.6727C0.205108 12.6612 -0.126855 13.9132 0.0436335 15.1483L5.81282 58.6571C6.11931 61.0003 8.11678 62.7522 10.4799 62.7504C10.6823 62.75 10.8844 62.7363 11.085 62.7097L15.6142 62.1124V72.5377C15.6142 75.1352 17.7198 77.2408 20.3173 77.2408H89.2968C91.8943 77.2408 93.9999 75.1352 93.9999 72.5377V28.6417C93.9999 26.0442 91.8943 23.9385 89.2968 23.9385ZM77.1141 23.9385H64.8718L76.9024 22.3442L77.1141 23.9385ZM3.14771 14.7251C3.09264 14.3159 3.20434 13.9016 3.45812 13.5759C3.71032 13.2406 4.08638 13.0204 4.50221 12.9645L72.8624 3.90626C73.7221 3.7973 74.5107 4.39695 74.6355 5.25449L75.2548 9.92315L3.76696 19.4031L3.14771 14.7251ZM15.6142 58.9503L10.6821 59.6009C9.82382 59.715 9.03565 59.1116 8.9216 58.2533C8.9216 58.2531 8.9216 58.2529 8.9216 58.2527L5.42403 31.8241L15.6142 30.4775V58.9503ZM15.8211 27.2887L5.00388 28.7153L4.18083 22.5135L75.6686 13.0319L76.1389 16.6251L76.487 19.2354L41.0112 23.9385H20.3173C18.244 23.9422 16.4176 25.303 15.8211 27.2887ZM90.8645 72.5377C90.8645 73.4035 90.1625 74.1054 89.2968 74.1054H20.3173C19.4516 74.1054 18.7496 73.4035 18.7496 72.5377V28.6887C18.7496 28.673 18.7574 28.6573 18.7574 28.6417C18.7574 27.7759 19.4594 27.0739 20.3252 27.0739H89.2968C90.1625 27.0739 90.8645 27.7759 90.8645 28.6417V72.5377Z" fill="#B2A278"/>
<path d="M68.8319 47.4905C69.4621 47.0253 70.0193 46.4683 70.4843 45.8381C73.0618 49.3077 77.9641 50.0308 81.4336 47.4531C84.9032 44.8755 85.6263 39.9733 83.0485 36.5038C81.5696 34.5132 79.2349 33.3413 76.7551 33.3448C74.2782 33.3517 71.9515 34.5331 70.4843 36.5288C67.9136 33.0456 63.0061 32.3058 59.5226 34.8765C56.0394 37.4471 55.2996 42.3547 57.8702 45.8381C60.4409 49.3212 65.3486 50.0611 68.8319 47.4905ZM76.7551 36.4802C79.3527 36.4802 81.4583 38.5859 81.4583 41.1834C81.4583 43.7809 79.3527 45.8865 76.7551 45.8865C74.1576 45.8865 72.052 43.7809 72.052 41.1834C72.052 38.5859 74.1576 36.4802 76.7551 36.4802ZM64.2134 36.4802C66.8109 36.4802 68.9166 38.5859 68.9166 41.1834C68.9166 43.7809 66.8109 45.8865 64.2134 45.8865C61.6159 45.8865 59.5103 43.7809 59.5103 41.1834C59.5103 38.5859 61.6159 36.4802 64.2134 36.4802Z" fill="#B2A278"/>
<path d="M28.1559 34.9125H25.0205V38.048H28.1559V34.9125Z" fill="#B2A278"/>
<path d="M50.104 34.9125H31.2914V38.048H50.104V34.9125Z" fill="#B2A278"/>
<path d="M50.1039 41.1834H25.0205V44.3188H50.1039V41.1834Z" fill="#B2A278"/>
<path d="M83.026 55.2928H26.5882C25.7225 55.2928 25.0205 55.9947 25.0205 56.8605V66.2668C25.0205 67.1326 25.7225 67.8345 26.5882 67.8345H83.026C83.8917 67.8345 84.5937 67.1326 84.5937 66.2668V56.8605C84.5937 55.9947 83.8919 55.2928 83.026 55.2928ZM81.4582 64.6991H28.1559V58.4282H81.4582V64.6991Z" fill="#B2A278"/>
</svg>
