<svg width="71" height="75" viewBox="0 0 71 75" fill="none" xmlns="http://www.w3.org/2000/svg">
<path d="M52.043 6.80347H18.8818C16.9331 6.80347 15.3477 8.3477 15.3477 10.2458C15.3477 12.144 16.9331 13.6882 18.8818 13.6882H52.043C53.9917 13.6882 55.5771 12.144 55.5771 10.2458C55.5771 8.3477 53.9917 6.80347 52.043 6.80347ZM52.043 11.491H18.8818C18.177 11.491 17.6035 10.9324 17.6035 10.2458C17.6035 9.55928 18.177 9.00073 18.8818 9.00073H52.043C52.7478 9.00073 53.3213 9.55928 53.3213 10.2458C53.3213 10.9324 52.7478 11.491 52.043 11.491Z" fill="#B2A278"/>
<path d="M52.043 18.0148H18.8818C16.9331 18.0148 15.3477 19.5591 15.3477 21.4572C15.3477 23.3554 16.9331 24.8996 18.8818 24.8996H52.043C53.9917 24.8996 55.5771 23.3554 55.5771 21.4572C55.5771 19.5591 53.9917 18.0148 52.043 18.0148ZM52.043 22.7023H18.8818C18.177 22.7023 17.6035 22.1438 17.6035 21.4572C17.6035 20.7706 18.177 20.2121 18.8818 20.2121H52.043C52.7478 20.2121 53.3213 20.7706 53.3213 21.4572C53.3213 22.1438 52.7478 22.7023 52.043 22.7023Z" fill="#B2A278"/>
<path d="M52.043 29.226H18.8818C16.9331 29.226 15.3477 30.7702 15.3477 32.6683C15.3477 34.5665 16.9331 36.1107 18.8818 36.1107H52.043C53.9917 36.1107 55.5771 34.5665 55.5771 32.6683C55.5771 30.7702 53.9917 29.226 52.043 29.226ZM52.043 33.9135H18.8818C18.177 33.9135 17.6035 33.3549 17.6035 32.6683C17.6035 31.9818 18.177 31.4232 18.8818 31.4232H52.043C52.7478 31.4232 53.3213 31.9818 53.3213 32.6683C53.3213 33.3549 52.7478 33.9135 52.043 33.9135Z" fill="#B2A278"/>
<path d="M70.3772 31.3351C70.3724 30.9451 70.1489 30.5953 69.837 30.4103C67.3553 28.9378 65.0755 27.5846 62.9743 26.337V18.8382C62.9743 18.2314 62.4692 17.7395 61.8463 17.7395C61.2234 17.7395 60.7184 18.2314 60.7184 18.8382V26.9539V35.1136C36.3738 49.5256 37.9371 48.6066 37.7113 48.7206C36.2435 49.46 34.5579 49.3963 33.2159 48.7184C32.9904 48.6043 10.5792 35.3007 10.2814 35.1242V26.9637V3.88667C10.2814 2.95503 11.0596 2.19727 12.0159 2.19727H58.9841C59.9404 2.19727 60.7186 2.95503 60.7186 3.88667V13.7125C60.7186 14.3193 61.2236 14.8112 61.8465 14.8112C62.4694 14.8112 62.9744 14.3193 62.9744 13.7125V3.88667C62.9744 1.74346 61.1843 0 58.9841 0H12.0159C9.81568 0 8.02559 1.74346 8.02559 3.88667V26.3461C7.94092 26.3962 1.19484 30.3896 1.11318 30.4443C0.816009 30.6428 0.621704 30.9771 0.621704 31.3482V31.3485V47.3584C0.621704 47.9651 1.12672 48.457 1.74963 48.457C2.37255 48.457 2.87756 47.9651 2.87756 47.3584C2.87756 45.8002 2.87756 34.7937 2.87756 33.3042C3.92744 33.9271 24.7164 46.2617 25.9529 46.9953C23.2329 49.8316 19.7085 53.5176 2.99321 70.99C2.91832 70.7524 2.87756 70.5004 2.87756 70.2393C2.87756 69.1932 2.87756 51.9608 2.87756 51.4739C2.87756 50.8671 2.37255 50.3752 1.74963 50.3752C1.12672 50.3752 0.621704 50.8671 0.621704 51.4739V70.2491V70.258C0.626667 71.5157 1.13604 72.6592 1.96123 73.5085C2.70221 74.3408 4.04655 75 5.50955 75H65.4906C66.9473 75 68.2964 74.3443 69.0397 73.5075C69.8685 72.6541 70.3783 71.5039 70.3783 70.2393C70.3783 69.1825 70.3783 32.0786 70.3783 31.3485C70.3781 31.344 70.3774 31.3396 70.3772 31.3351ZM8.02559 33.7857L3.91947 31.3496C5.3569 30.4985 6.72456 29.6886 8.02559 28.9178V33.7857ZM62.9744 28.9103C64.2753 29.6826 65.6429 30.4942 67.0805 31.3475L62.9744 33.7783V28.9103ZM65.4904 72.8027H5.50955C5.16185 72.8027 4.83625 72.738 4.52299 72.6142C22.4865 53.8368 25.2218 50.9758 27.9205 48.1626C31.631 50.3641 31.8687 50.5132 32.1771 50.6689C32.1773 50.6689 32.1773 50.6691 32.1774 50.6691C34.2421 51.7147 36.6821 51.7159 38.7481 50.6723C39.0486 50.5209 38.8235 50.647 43.0594 48.1393C43.9611 49.0781 64.7553 70.8144 66.4772 72.6142C66.1511 72.7431 65.8138 72.8027 65.4904 72.8027ZM68.1223 70.2393C68.1223 70.5004 68.0815 70.7524 68.0066 70.99C65.8365 68.7217 46.1962 48.1919 45.0284 46.9736C45.3501 46.7832 67.7377 33.5297 68.1224 33.3021C68.1223 34.1054 68.1223 69.4386 68.1223 70.2393Z" fill="#B2A278"/>
</svg>
