<svg width="34" height="44" viewBox="0 0 34 44" fill="none" xmlns="http://www.w3.org/2000/svg">
<path d="M17 0C8.03748 0 0.746216 7.29127 0.746216 16.2538C0.746216 19.2043 2.06947 22.3777 2.12492 22.5115C2.5523 23.5259 3.39559 25.1016 4.00367 26.0252L15.148 42.911C15.6041 43.6032 16.2791 44 17 44C17.7209 44 18.3959 43.6032 18.852 42.9119L29.9973 26.0252C30.6064 25.1016 31.4487 23.5259 31.8761 22.5115C31.9315 22.3786 33.2538 19.2053 33.2538 16.2538C33.2538 7.29127 25.9626 0 17 0ZM30.113 21.7696C29.7315 22.6788 28.9466 24.1445 28.4006 24.9725L17.2553 41.8593C17.0354 42.193 16.9656 42.193 16.7457 41.8593L5.60037 24.9725C5.05443 24.1445 4.26947 22.6779 3.88798 21.7686C3.87173 21.7294 2.65843 18.8085 2.65843 16.2538C2.65843 8.34585 9.09207 1.91221 17 1.91221C24.908 1.91221 31.3416 8.34585 31.3416 16.2538C31.3416 18.8123 30.1254 21.7409 30.113 21.7696Z" fill="#B2A278"/>
<path d="M17 7.6498C12.2549 7.6498 8.39508 11.5106 8.39508 16.2548C8.39508 20.9989 12.2549 24.8597 17 24.8597C21.7452 24.8597 25.605 20.9989 25.605 16.2548C25.605 11.5106 21.7452 7.6498 17 7.6498ZM17 22.9475C13.3104 22.9475 10.3073 19.9453 10.3073 16.2548C10.3073 12.5642 13.3104 9.56201 17 9.56201C20.6896 9.56201 23.6928 12.5642 23.6928 16.2548C23.6928 19.9453 20.6896 22.9475 17 22.9475Z" fill="#B2A278"/>
</svg>
