<svg width="15" height="10" viewBox="0 0 15 10" fill="none" xmlns="http://www.w3.org/2000/svg">
<path d="M9.94318 4.72934L15.0001 7.61841V1.71826L9.94318 4.72934Z" fill="white"/>
<path d="M0 1.71826V7.61841L5.05688 4.72934L0 1.71826Z" fill="white"/>
<path d="M14.0624 0H0.937451C0.469639 0 0.0983887 0.315162 0.0280762 0.720976L7.49995 5.16968L14.9718 0.720976C14.9015 0.315162 14.5303 0 14.0624 0Z" fill="white"/>
<path d="M9.08441 5.24108L7.75784 6.03073C7.67909 6.07733 7.59003 6.10021 7.50003 6.10021C7.41003 6.10021 7.32097 6.07733 7.24222 6.03073L5.91566 5.24023L0.0300293 8.60473C0.102217 9.00718 0.471592 9.31982 0.937529 9.31982H14.0625C14.5285 9.31982 14.8978 9.00718 14.97 8.60473L9.08441 5.24108Z" fill="white"/>
</svg>
