<svg width="24" height="24" viewBox="0 0 24 24" fill="none" xmlns="http://www.w3.org/2000/svg">
<g clip-path="url(#clip0)">
<path d="M11.3299 0.152284C11.1228 -0.0478631 10.7925 -0.0420929 10.5924 0.165095C10.3972 0.367247 10.3972 0.687687 10.5924 0.88979L21.6983 11.9967L10.5914 23.1026C10.3842 23.3027 10.3784 23.6329 10.5786 23.8401C10.7787 24.0473 11.1089 24.053 11.3161 23.8529C11.3205 23.8487 11.3247 23.8445 11.3289 23.8401L22.8041 12.3649C23.0077 12.1613 23.0077 11.8311 22.8041 11.6274L11.3299 0.152284Z" fill="#009688"/>
<path d="M13.4163 11.6294L1.94113 0.154237C1.73395 -0.04591 1.40373 -0.0401398 1.20358 0.167048C1.00837 0.3692 1.00837 0.68964 1.20358 0.891792L12.3095 11.9987L1.20255 23.1045C0.995364 23.3047 0.989643 23.6348 1.18974 23.8421C1.38989 24.0492 1.72006 24.055 1.9273 23.8549C1.93165 23.8507 1.9359 23.8464 1.94011 23.8421L13.4153 12.3669C13.6191 12.1635 13.6196 11.8334 13.4163 11.6294Z" fill="#009688"/>
<path d="M10.9605 23.9944C10.6725 23.9949 10.4385 23.7617 10.438 23.4737C10.4377 23.3348 10.4929 23.2016 10.5912 23.1035L21.6981 11.9976L10.5912 0.891773C10.3911 0.684585 10.3969 0.354365 10.6041 0.154218C10.8062 -0.0409895 11.1266 -0.0409895 11.3287 0.154218L22.8039 11.6294C23.0075 11.833 23.0075 12.1632 22.8039 12.3669L11.3288 23.842C11.231 23.9396 11.0986 23.9944 10.9605 23.9944Z" fill="#B2A278"/>
<path d="M1.57332 23.9941C1.28526 23.9947 1.05132 23.7615 1.05078 23.4735C1.05054 23.3346 1.1057 23.2013 1.20403 23.1032L12.3109 11.9974L1.20403 0.891553C1.00007 0.687592 1.00007 0.356932 1.20403 0.152971C1.40799 -0.0509902 1.73865 -0.0509902 1.94262 0.152971L13.4178 11.6281C13.6214 11.8318 13.6214 12.162 13.4178 12.3657L1.94262 23.8408C1.84477 23.9389 1.71191 23.9941 1.57332 23.9941Z" fill="#B2A278"/>
</g>
<defs>
<clipPath id="clip0">
<rect width="24" height="24" fill="white"/>
</clipPath>
</defs>
</svg>
