<svg width="12" height="15" viewBox="0 0 12 15" fill="none" xmlns="http://www.w3.org/2000/svg">
<path d="M0.300084 11.9704H2.40013V13.8336C2.40013 13.9243 2.42815 13.9985 2.48454 14.0565C2.54077 14.1149 2.61265 14.144 2.70021 14.144H4.26576C4.34701 14.144 4.41732 14.1149 4.47671 14.0565C4.53609 13.9985 4.56569 13.9242 4.56569 13.8336V11.9704H9.30007C9.38745 11.9704 9.45936 11.9416 9.51572 11.8832C9.57213 11.8249 9.60013 11.7506 9.60013 11.66V10.4179C9.60013 10.3278 9.57213 10.2531 9.51572 10.1951C9.45952 10.1367 9.38745 10.1075 9.30007 10.1075H4.56554V8.96252H7.75305C9.00299 8.96252 10.0232 8.56833 10.814 7.77883C11.6045 6.99016 12 5.97139 12 4.72247C12 3.47438 11.6045 2.45558 10.814 1.66611C10.0233 0.877412 9.00296 0.482422 7.75305 0.482422H2.70006C2.61247 0.482422 2.54074 0.511586 2.48438 0.56962C2.42815 0.627976 2.39997 0.702694 2.39997 0.792838V6.89608H0.300084C0.21252 6.89608 0.140766 6.92674 0.0844076 6.98818C0.0282049 7.04964 0 7.12241 0 7.20647V8.65205C0 8.7427 0.0280237 8.81696 0.0844076 8.87529C0.140791 8.93367 0.212364 8.96249 0.300084 8.96249H2.40013V10.1075H0.300084C0.21252 10.1075 0.140766 10.1367 0.0844076 10.195C0.0282049 10.2531 0 10.3276 0 10.4179V11.6599C0 11.7506 0.0280237 11.8249 0.0844076 11.8832C0.140766 11.9416 0.212494 11.9704 0.300084 11.9704ZM4.56554 2.54934H7.56555C8.22798 2.54934 8.76227 2.74979 9.16865 3.15084C9.57482 3.55191 9.778 4.07603 9.778 4.72263C9.778 5.36955 9.57482 5.89384 9.16865 6.29442C8.76227 6.69581 8.22795 6.89627 7.56555 6.89627H4.56554V2.54934Z" fill="#2B2727"/>
</svg>
