<svg width="31" height="31" viewBox="0 0 31 31" fill="none" xmlns="http://www.w3.org/2000/svg">
<path d="M18.3 0.0996094C24.8652 0.0996094 30.2 5.43438 30.2 11.9996C30.2 18.5648 24.8652 23.8996 18.3 23.8996C15.7023 23.8996 13.3015 23.0629 11.3437 21.6465L2.13433 30.834L0.165577 28.8652L9.26558 19.7434C7.47729 17.6598 6.39995 14.9555 6.39995 11.9996C6.39995 5.43438 11.7347 0.0996094 18.3 0.0996094ZM18.3 1.49961C12.4921 1.49961 7.79995 6.1918 7.79995 11.9996C7.79995 17.8074 12.4921 22.4996 18.3 22.4996C24.1078 22.4996 28.8 17.8074 28.8 11.9996C28.8 6.1918 24.1078 1.49961 18.3 1.49961Z" fill="#B2A278"/>
</svg>
