<svg width="100" height="100" viewBox="0 0 100 100" fill="none" xmlns="http://www.w3.org/2000/svg">
<path d="M52.4686 32.1377C52.434 32.1284 51.8677 31.9822 51.8677 31.9822V19.1123C53.1112 19.3343 54.2588 19.9253 55.176 20.8334C55.7572 21.4083 56.6904 21.4004 57.2614 20.815C57.8321 20.2296 57.8239 19.289 57.2431 18.7139C55.7696 17.2548 53.8915 16.3534 51.8675 16.11V12.2669C51.8675 11.4462 51.2075 10.7811 50.3929 10.7811C49.5783 10.7811 48.9183 11.4462 48.9183 12.2669V16.2251C44.6847 17.0852 41.4867 20.8613 41.4867 25.3763C41.4867 29.8797 44.6888 33.6617 48.9183 34.5239V47.409C48.7342 47.3756 48.5508 47.335 48.3681 47.2848C46.7293 46.8343 45.3681 45.7665 44.5351 44.2786C44.1351 43.5638 43.2356 43.3114 42.5262 43.7144C41.817 44.1175 41.5661 45.0237 41.9662 45.7384C43.1892 47.9229 45.187 49.4903 47.5915 50.1514C48.0309 50.2723 48.4741 50.3571 48.9181 50.4121V54.2564C48.9181 55.0771 49.5781 55.7422 50.3927 55.7422C51.2073 55.7422 51.8673 55.0771 51.8673 54.2564V50.299C52.8241 50.1033 53.7545 49.7538 54.6267 49.2516C56.7757 48.015 58.318 46.0088 58.9698 43.6028C59.6216 41.1969 59.3044 38.6793 58.0771 36.5142C56.8502 34.3495 54.8593 32.7954 52.4686 32.1377ZM44.4364 25.3763C44.4364 22.5098 46.3276 20.0806 48.9187 19.2868V31.4639C46.3296 30.6685 44.4364 28.2356 44.4364 25.3763ZM56.1251 42.8207C55.6808 44.4608 54.6294 45.8286 53.1644 46.6715C52.7492 46.9104 52.3143 47.0972 51.8677 47.2349V35.0576C53.4183 35.5312 54.7099 36.5655 55.5166 37.9885C56.3534 39.4644 56.5695 41.1806 56.1251 42.8207Z" fill="#B3A278" fill-opacity="0.75"/>
<path d="M93.9383 85.9378V28.2916C93.9383 25.4645 91.6548 23.1647 88.8478 23.1647H81.8783C80.3009 18.151 77.5445 13.5569 73.7474 9.73092C60.8697 -3.2438 39.9167 -3.2438 27.039 9.73092C23.2419 13.5569 20.4855 18.151 18.908 23.1647H11.9387C9.13196 23.1647 6.84824 25.4645 6.84824 28.2916V39.7897C6.84824 40.6104 7.50829 41.2755 8.32288 41.2755C9.13747 41.2755 9.79751 40.6104 9.79751 39.7897V28.2916C9.79751 27.1032 10.758 26.1362 11.9387 26.1362H18.1219C17.6233 28.4511 17.3655 30.8365 17.3655 33.2619C17.3655 42.1505 20.8011 50.5074 27.039 56.7925C33.4778 63.2798 41.9355 66.5236 50.3931 66.5236C58.8506 66.5236 67.3083 63.2798 73.7472 56.7925C79.9853 50.5072 83.4206 42.1505 83.4206 33.2619C83.4206 30.8365 83.1628 28.4513 82.6642 26.1362H88.8475C90.0281 26.1362 90.9886 27.1032 90.9886 28.2916V85.9066H9.79751V46.5253C9.79751 45.7045 9.13747 45.0395 8.32288 45.0395C7.50829 45.0395 6.84824 45.7045 6.84824 46.5253V85.9066H6.69488C3.00318 85.9068 3.05176e-05 88.9327 3.05176e-05 92.6521V93.2544C3.05176e-05 96.9738 3.00318 99.9999 6.69488 99.9999H64.8447C65.6593 99.9999 66.3193 99.3348 66.3193 98.5141C66.3193 97.6933 65.6593 97.0283 64.8447 97.0283H6.69488C4.6296 97.0283 2.9493 95.3353 2.9493 93.2544V92.6521C2.9493 90.5712 4.6296 88.8782 6.69488 88.8782H93.3052C95.3705 88.8782 97.0508 90.5712 97.0508 92.6521V93.2544C97.0508 95.3353 95.3705 97.0283 93.3052 97.0283H71.5297C70.7151 97.0283 70.0551 97.6933 70.0551 98.5141C70.0551 99.3348 70.7151 99.9999 71.5297 99.9999H93.3052C96.9967 99.9999 100 96.974 100 93.2544V92.6521C100 89.1479 97.3339 86.2603 93.9383 85.9378ZM71.6618 54.6912C59.9344 66.5074 40.852 66.5074 29.1247 54.6912C23.4434 48.9673 20.3148 41.3569 20.3148 33.2619C20.3148 30.4908 20.6817 27.7768 21.3919 25.1754C21.4214 25.0968 21.4452 25.0154 21.4613 24.931C22.8441 20.0284 25.4493 15.5354 29.1247 11.8324C34.9884 5.92432 42.6908 2.97017 50.3933 2.97017C58.0958 2.97017 65.7981 5.92432 71.6618 11.8324C75.3372 15.5354 77.9424 20.0286 79.3252 24.931C79.3414 25.0154 79.3652 25.0966 79.3946 25.1752C80.1048 27.7766 80.4717 30.4906 80.4717 33.2617C80.4715 41.3571 77.3429 48.9675 71.6618 54.6912Z" fill="#B3A278" fill-opacity="0.75"/>
</svg>
