<svg width="88" height="100" viewBox="0 0 88 100" fill="none" xmlns="http://www.w3.org/2000/svg">
<path d="M87.0176 83.1507L72.6331 68.7664C72.0608 68.1944 71.1333 68.1944 70.5612 68.7664C69.989 69.3387 69.989 70.2661 70.5612 70.8382L84.9457 85.2226C85.2319 85.5085 85.6069 85.6515 85.9817 85.6515C86.3566 85.6515 86.7316 85.5085 87.0178 85.2226C87.5897 84.6502 87.5897 83.7228 87.0176 83.1507Z" fill="#B3A278" fill-opacity="0.75"/>
<path d="M40.9396 69.8532L70.6573 99.5709C70.9435 99.8569 71.3185 99.9999 71.6934 99.9999C72.0682 99.9999 72.4433 99.8569 72.7294 99.5709C73.3015 98.9986 73.3015 98.0712 72.7294 97.499L44.0987 68.8685C44.4425 68.6437 44.7685 68.3808 45.0703 68.079L47.5539 65.5953C48.1261 65.023 48.1261 64.0956 47.5539 63.5234C46.9816 62.9515 46.0542 62.9515 45.482 63.5234L42.9986 66.0071C41.7697 67.2357 39.7703 67.2361 38.5415 66.0071L35.9703 63.4359C37.2437 62.4428 38.0651 60.8958 38.0651 59.1595C38.0651 56.1697 35.6328 53.7376 32.6434 53.7376H32.2719C32.66 52.9911 32.8807 52.1441 32.8807 51.246C32.8807 48.2562 30.4485 45.8241 27.4591 45.8241H25.6071C25.9953 45.0774 26.2162 44.2304 26.2162 43.3323C26.2162 40.3425 23.7839 37.9104 20.7945 37.9104H17.3338C17.7219 37.1637 17.9429 36.3167 17.9429 35.4186C17.9429 32.6067 15.7467 30.234 12.9433 30.0168C12.137 29.9543 11.432 30.5575 11.3695 31.3642C11.307 32.1707 11.9102 32.8753 12.7169 32.938C14.0044 33.0378 15.0129 34.1274 15.0129 35.4186C15.0129 36.7925 13.895 37.9104 12.521 37.9104H6.30239C4.92842 37.9104 3.81053 36.7925 3.81053 35.4186C3.81053 34.1647 4.74832 33.1031 5.9922 32.9492C6.79502 32.8497 7.36539 32.1182 7.26596 31.3152C7.16654 30.5124 6.43443 29.9442 5.632 30.0414C5.28041 30.085 4.94033 30.1625 4.61432 30.2692C1.34367 22.9454 2.91532 14.3152 8.6206 8.6099C12.2903 4.94019 17.1693 2.91927 22.3589 2.91927C27.5485 2.91927 32.4276 4.94019 36.0973 8.6099L39.734 12.2464C40.0086 12.5212 40.3813 12.6756 40.7698 12.6756C41.1584 12.6756 41.5311 12.5212 41.8057 12.2466L45.4426 8.6099C53.0172 1.0349 65.3435 1.03451 72.9189 8.6099C76.5886 12.2794 78.6095 17.1584 78.6095 22.3481C78.6095 27.5377 76.5886 32.4167 72.9189 36.0862L50.4439 58.5612C49.8718 59.1335 49.8718 60.061 50.4439 60.6331C50.7301 60.9191 51.1051 61.062 51.4799 61.062C51.8548 61.062 52.2298 60.9191 52.516 60.6331L56.4361 56.713L65.5988 65.8758C65.8849 66.1618 66.2598 66.3048 66.6348 66.3048C67.0097 66.3048 67.3847 66.1618 67.6709 65.8758C68.243 65.3035 68.243 64.3761 67.6709 63.8039L58.5082 54.6411L74.991 38.1583C83.7087 29.4406 83.7087 15.2557 74.991 6.53801C66.2729 -2.1795 52.0884 -2.1793 43.3709 6.53801L40.77 9.13887L38.1694 6.53801C29.4517 -2.1795 15.2668 -2.1795 6.54929 6.53801C-0.138712 13.226 -1.89007 23.406 2.15567 31.9326C1.35793 32.8804 0.880534 34.1004 0.880534 35.4187C0.880534 38.4085 3.31282 40.8406 6.30239 40.8406H7.81993C7.4318 41.5874 7.21088 42.4343 7.21088 43.3325C7.21088 46.3222 9.64316 48.7543 12.6325 48.7543H14.5775C14.1893 49.5011 13.9684 50.348 13.9684 51.2462C13.9684 54.2357 16.4007 56.6678 19.3903 56.6678H22.9994C22.6113 57.4146 22.3904 58.2616 22.3904 59.1597C22.3904 62.1495 24.8227 64.5815 27.8122 64.5815L32.9614 64.5714L36.4692 68.0792C37.6551 69.2646 39.3824 69.8532 40.9396 69.8532ZM10.1411 43.3325C10.1411 41.9585 11.259 40.8406 12.6327 40.8406H20.7941C22.1681 40.8406 23.2858 41.9585 23.2858 43.3325C23.2858 44.7064 22.1679 45.8243 20.7941 45.8243H12.6327C11.2588 45.8243 10.1411 44.7064 10.1411 43.3325ZM16.8988 51.2462C16.8988 49.8722 18.0167 48.7543 19.3907 48.7543H27.4589C28.8329 48.7543 29.9506 49.8722 29.9506 51.2462C29.9506 52.6199 28.8327 53.7378 27.4589 53.7378H19.3907C18.0165 53.7376 16.8988 52.6199 16.8988 51.2462ZM25.3208 59.1595C25.3208 57.7855 26.4387 56.6676 27.8126 56.6676H32.6432C34.0172 56.6676 35.1349 57.7855 35.1349 59.1595C35.1349 60.5335 34.017 61.6514 32.6432 61.6514H27.8126C26.4387 61.6514 25.3208 60.5335 25.3208 59.1595Z" fill="#B3A278" fill-opacity="0.75"/>
</svg>
