<svg width="100" height="77" viewBox="0 0 100 77" fill="none" xmlns="http://www.w3.org/2000/svg">
<path d="M98.3845 60.0002L99.9501 53.7376C100.017 53.4694 100.016 53.1886 99.948 52.9207C99.8795 52.6528 99.7454 52.4061 99.5578 52.203C99.3702 51.9998 99.135 51.8465 98.8735 51.7568C98.6119 51.6672 98.3321 51.6441 98.0593 51.6895L90.2695 52.9878C89.2191 50.4447 87.5491 48.2047 85.4118 46.4718C87.3243 42.032 88.3332 36.9468 88.3332 31.6667C88.3332 23.0174 85.6645 15.1013 80.8186 9.37669C75.6259 3.2423 68.4269 0 59.9998 0H36.6664C19.2053 0 4.99968 14.2057 4.99968 31.6667C4.99892 36.5074 6.1069 41.2839 8.23865 45.6299C5.08154 47.4796 2.62113 50.3172 1.23733 53.7045C-0.146484 57.0918 -0.376735 60.8405 0.582121 64.3717C1.54098 67.9029 3.63562 71.0202 6.54262 73.2424C9.44962 75.4646 13.0073 76.668 16.6664 76.6669H76.6665C82.6838 76.6669 87.8818 72.7085 90.2695 67.0125L98.0593 68.3108C98.3321 68.3562 98.6119 68.3331 98.8735 68.2435C99.135 68.1538 99.3702 68.0005 99.5578 67.7973C99.7454 67.5942 99.8795 67.3475 99.948 67.0796C100.016 66.8117 100.017 66.5309 99.9501 66.2627L98.3845 60.0002ZM78.2745 11.5302C82.6113 16.6538 84.9999 23.8051 84.9999 31.6667C84.9999 36.3047 84.1584 40.7628 82.5557 44.6735C81.6738 44.2531 80.7497 43.9273 79.799 43.7018C81.0611 39.8158 81.6916 35.7525 81.6666 31.6667C81.6666 23.0174 78.9976 15.1013 74.1519 9.37669C72.848 7.83056 71.3734 6.4369 69.7561 5.22231C73.0551 6.6205 75.9748 8.78251 78.2745 11.5302ZM64.9411 11.5302C69.278 16.6538 71.6665 23.8051 71.6665 31.6667C71.6964 35.6377 71.0429 39.5842 69.7344 43.3334H66.1148C67.5903 39.6212 68.3432 35.6614 68.3332 31.6667C68.3291 25.9533 66.7807 20.3472 63.8518 15.4417C60.9229 10.5361 56.7224 6.51346 51.6948 3.79938C56.8761 4.7544 61.5612 7.48875 64.9411 11.5302ZM67.4853 9.37669C66.1813 7.83056 64.7067 6.4369 63.0894 5.22231C66.3885 6.62047 69.3082 8.78249 71.608 11.5302C75.9447 16.6538 78.3332 23.8051 78.3332 31.6667C78.3631 35.6377 77.7095 39.5842 76.4011 43.3334H73.2528C74.4335 39.558 75.0228 35.6225 74.9999 31.6667C74.9999 23.0174 72.3309 15.1013 67.4853 9.37669ZM8.33302 31.6667C8.33302 16.0436 21.0435 3.33334 36.6664 3.33334C52.2894 3.33334 64.9998 16.0436 64.9998 31.6667C65.0107 35.6905 64.1556 39.6695 62.4925 43.3334H16.6664C14.8292 43.3332 13.0048 43.6382 11.2676 44.236C9.33635 40.3275 8.33215 36.0263 8.33302 31.6667ZM3.33301 60.0002C3.33301 57.3631 4.115 54.7852 5.58009 52.5925C7.04518 50.3999 9.12757 48.6909 11.5639 47.6817C14.0003 46.6726 16.6812 46.4085 19.2676 46.923C21.854 47.4375 24.2298 48.7073 26.0945 50.572C27.9592 52.4367 29.2291 54.8125 29.7436 57.3989C30.258 59.9854 29.994 62.6663 28.9848 65.1026C27.9756 67.539 26.2667 69.6214 24.074 71.0864C21.8813 72.5515 19.3035 73.3335 16.6664 73.3335C13.1314 73.3296 9.74228 71.9235 7.24265 69.4239C4.74302 66.9243 3.33698 63.5352 3.33301 60.0002ZM76.6665 73.3335H26.6549C28.728 71.7832 30.4109 69.7708 31.5702 67.4563C32.7295 65.1417 33.333 62.5888 33.333 60.0002C33.333 57.4115 32.7295 54.8586 31.5702 52.544C30.4109 50.2295 28.728 48.2171 26.6549 46.6668H33.3331C37.0679 46.6668 43.3331 48.3989 43.3331 60.0002C43.3331 60.4422 43.5087 60.8661 43.8213 61.1787C44.1338 61.4912 44.5578 61.6668 44.9998 61.6668C45.4418 61.6668 45.8657 61.4912 46.1783 61.1787C46.4909 60.8661 46.6665 60.4422 46.6665 60.0002C46.6665 54.0768 45.0592 49.5103 42.1437 46.6668H49.9998C53.7346 46.6668 59.9998 48.3989 59.9998 60.0002C59.9998 60.4422 60.1754 60.8661 60.488 61.1787C60.8005 61.4912 61.2245 61.6668 61.6665 61.6668C62.1085 61.6668 62.5325 61.4912 62.845 61.1787C63.1576 60.8661 63.3332 60.4422 63.3332 60.0002C63.3332 54.0768 61.7259 49.5103 58.8104 46.6668H64.9998C68.7346 46.6668 74.9999 48.3989 74.9999 60.0002C74.9999 60.4422 75.1755 60.8661 75.488 61.1787C75.8006 61.4912 76.2245 61.6668 76.6665 61.6668C77.1086 61.6668 77.5325 61.4912 77.8451 61.1787C78.1576 60.8661 78.3332 60.4422 78.3332 60.0002C78.3332 54.0768 76.7259 49.5103 73.8105 46.6668H76.6665C83.0997 46.6668 88.3332 52.6481 88.3332 60.0002C88.3332 67.3523 83.0997 73.3335 76.6665 73.3335ZM95.0497 60.4043L96.0997 64.605L91.2687 63.7998C91.7992 61.2945 91.7992 58.7058 91.2687 56.2006L96.0997 55.3954L95.0497 59.596C94.9833 59.8613 94.9833 60.139 95.0497 60.4043Z" fill="#B3A278" fill-opacity="0.75"/>
<path d="M13.333 58.3335C12.3441 58.3335 11.3774 58.6267 10.5552 59.1762C9.73292 59.7256 9.09205 60.5065 8.71361 61.4201C8.33517 62.3337 8.23616 63.3391 8.42908 64.309C8.62201 65.2789 9.09822 66.1698 9.79748 66.8691C10.4967 67.5683 11.3877 68.0445 12.3576 68.2374C13.3275 68.4304 14.3328 68.3314 15.2464 67.9529C16.1601 67.5745 16.941 66.9336 17.4904 66.1114C18.0398 65.2891 18.333 64.3224 18.333 63.3335C18.3315 62.0079 17.8043 60.737 16.8669 59.7996C15.9296 58.8622 14.6587 58.335 13.333 58.3335ZM13.333 65.0002C13.0034 65.0002 12.6812 64.9024 12.4071 64.7193C12.133 64.5362 11.9194 64.2759 11.7932 63.9713C11.6671 63.6668 11.6341 63.3317 11.6984 63.0084C11.7627 62.6851 11.9214 62.3881 12.1545 62.155C12.3876 61.9219 12.6846 61.7632 13.0079 61.6989C13.3312 61.6346 13.6663 61.6676 13.9708 61.7937C14.2754 61.9199 14.5357 62.1335 14.7188 62.4076C14.9019 62.6816 14.9997 63.0039 14.9997 63.3335C14.9992 63.7754 14.8234 64.199 14.511 64.5115C14.1985 64.8239 13.7749 64.9997 13.333 65.0002Z" fill="#B3A278" fill-opacity="0.75"/>
<path d="M37.9879 36.1787C38.1426 36.3335 38.3264 36.4562 38.5286 36.54C38.7308 36.6238 38.9475 36.6669 39.1664 36.6669C39.3853 36.6669 39.602 36.6238 39.8043 36.54C40.0065 36.4562 40.1902 36.3335 40.345 36.1787L47.0117 29.512C47.3242 29.1994 47.4998 28.7755 47.4998 28.3335C47.4998 27.8914 47.3242 27.4675 47.0117 27.1549C46.6991 26.8423 46.2752 26.6667 45.8331 26.6667C45.3911 26.6667 44.9671 26.8423 44.6546 27.1549L37.9879 33.8216C37.8331 33.9764 37.7103 34.1601 37.6266 34.3623C37.5428 34.5645 37.4997 34.7813 37.4997 35.0001C37.4997 35.219 37.5428 35.4358 37.6266 35.638C37.7103 35.8402 37.8331 36.0239 37.9879 36.1787Z" fill="#B3A278" fill-opacity="0.75"/>
<path d="M23.3331 36.6668C23.552 36.6671 23.7688 36.6241 23.971 36.5403C24.1733 36.4566 24.357 36.3336 24.5116 36.1786L42.845 17.8453C43.1576 17.5327 43.3332 17.1088 43.3332 16.6667C43.3332 16.2247 43.1576 15.8007 42.845 15.4882C42.5324 15.1756 42.1085 15 41.6664 15C41.2244 15 40.8005 15.1756 40.4879 15.4882L22.1545 33.8216C21.9214 34.0546 21.7627 34.3516 21.6983 34.6749C21.634 34.9982 21.667 35.3334 21.7932 35.6379C21.9193 35.9425 22.133 36.2028 22.4071 36.3859C22.6812 36.569 23.0034 36.6668 23.3331 36.6668Z" fill="#B3A278" fill-opacity="0.75"/>
<path d="M21.6664 56.6668C22.5869 56.6668 23.3331 55.9206 23.3331 55.0002C23.3331 54.0797 22.5869 53.3335 21.6664 53.3335C20.7459 53.3335 19.9997 54.0797 19.9997 55.0002C19.9997 55.9206 20.7459 56.6668 21.6664 56.6668Z" fill="#B3A278" fill-opacity="0.75"/>
</svg>
