<svg width="90" height="90" viewBox="0 0 90 90" fill="none" xmlns="http://www.w3.org/2000/svg">
<path d="M73.1195 87.1878H36.5606V71.7206V66.0961H33.7484V70.3144H22.4995C11.4137 70.3144 11.2506 56.8256 11.2506 56.2533H15.4689V53.4411H9.84449H4.22005C4.19966 53.4436 4.17927 53.4455 4.15888 53.4469C3.47639 53.4949 2.88424 52.9804 2.83643 52.2979L11.1212 34.3447C11.2068 34.1602 11.251 33.9591 11.2506 33.7556C11.2506 32.8157 11.2933 31.8763 11.3787 30.9403C12.932 13.9264 27.9835 1.39302 44.9973 2.94625L45.2476 0.149491C35.7864 -0.747608 26.3902 2.42229 19.406 8.86738C12.5096 15.1907 8.53927 24.0873 8.43838 33.4434L0.131076 51.4458C0.0454789 51.6304 0.00136217 51.8315 0.0017137 52.035C-0.000571233 52.115 -0.000571233 52.1948 0.0017137 52.2747C0.0679767 54.5382 1.95656 56.3196 4.22005 56.2533H8.43838C8.43838 62.0887 11.3772 73.1267 22.4995 73.1267H33.7484V88.5939C33.7484 89.3704 34.378 90 35.1545 90H74.5256C75.3021 90 75.9317 89.3704 75.9317 88.5939V50.6289H73.1195V87.1878Z" fill="#B3A278" fill-opacity="0.75"/>
<path d="M88.8764 15.5182C85.0107 3.7162 72.3094 -2.71747 60.5074 1.14846C48.7054 5.01439 42.2719 17.7154 46.1376 29.5175L39.6372 38.5588C39.4649 38.7981 39.3725 39.0855 39.3725 39.3803C39.3727 40.1568 40.0024 40.7862 40.779 40.786H54.4182C58.2237 43.535 62.8004 45.0114 67.4951 45.0044C69.8767 45.0056 72.2433 44.6286 74.5066 43.8872C86.3087 40.0213 92.7422 27.3201 88.8764 15.5182ZM67.4951 42.1921C63.2465 42.1972 59.1125 40.8149 55.7217 38.255C55.4783 38.0724 55.1823 37.9738 54.878 37.9738H43.5209L48.8458 30.5664C49.1179 30.1885 49.1854 29.7004 49.0258 29.263C48.2132 27.0557 47.8013 24.7212 47.8093 22.3691C47.8473 11.4591 56.7223 2.64562 67.6323 2.68341C78.5424 2.7212 87.3559 11.5964 87.3181 22.5064C87.2803 33.4164 78.4051 42.2299 67.4951 42.1921Z" fill="#B3A278" fill-opacity="0.75"/>
<path d="M67.4951 7.03955C65.1653 7.03955 63.2767 8.92813 63.2767 11.2579V22.5068C63.2767 24.8365 65.1653 26.7251 67.4951 26.7251C69.8248 26.7251 71.7134 24.8365 71.7134 22.5068V11.2579C71.7134 8.92813 69.8248 7.03955 67.4951 7.03955ZM68.9012 22.5068C68.9012 23.2833 68.2716 23.9129 67.4951 23.9129C66.7185 23.9129 66.089 23.2833 66.089 22.5068V11.2579C66.089 10.4814 66.7185 9.85177 67.4951 9.85177C68.2716 9.85177 68.9012 10.4814 68.9012 11.2579V22.5068Z" fill="#B3A278" fill-opacity="0.75"/>
<path d="M67.4951 29.5371C65.1653 29.5371 63.2767 31.4257 63.2767 33.7554C63.2767 36.0852 65.1653 37.9738 67.4951 37.9738C69.8248 37.9738 71.7134 36.0852 71.7134 33.7554C71.7134 31.4257 69.8248 29.5371 67.4951 29.5371ZM67.4951 35.1616C66.7185 35.1616 66.089 34.532 66.089 33.7554C66.089 32.9789 66.7185 32.3493 67.4951 32.3493C68.2716 32.3493 68.9012 32.9789 68.9012 33.7554C68.9012 34.532 68.2716 35.1616 67.4951 35.1616Z" fill="#B3A278" fill-opacity="0.75"/>
</svg>
