<svg width="79" height="100" viewBox="0 0 79 100" fill="none" xmlns="http://www.w3.org/2000/svg">
<path d="M76.8823 75.7812C77.6912 75.7812 78.3471 75.1253 78.3471 74.3164V39.16C78.3471 37.4116 77.6656 35.6231 76.4283 34.1241L65.5645 20.9612C64.9953 20.2715 64.341 19.6903 63.6305 19.2274C63.674 18.7797 63.6988 18.3276 63.6988 17.8711V1.46485C63.6988 0.655861 63.043 0 62.234 0C61.425 0 60.7691 0.655861 60.7691 1.46485C60.7691 1.46485 60.7662 18.0108 60.765 18.0807C60.3482 18.0069 59.9252 17.9688 59.4996 17.9688H40.5542C39.2205 17.9688 37.913 18.343 36.7425 19.0307C36.6919 19.0489 36.6417 19.0692 36.5925 19.0932L22.313 26.0487C20.731 26.8422 19.4659 28.1733 18.7505 29.7965C18.7427 29.8143 18.7353 29.8321 18.7282 29.8501L12.8243 44.8251C12.5276 45.5778 12.8972 46.4284 13.6499 46.7253C13.8263 46.7948 14.0079 46.8276 14.1868 46.8276C14.7708 46.8276 15.3228 46.4759 15.5499 45.8997L21.4423 30.9536C21.8855 29.9635 22.6603 29.1524 23.6112 28.6751L31.1558 25.0002L23.6253 34.1243C22.4978 35.4903 21.9019 37.2319 21.9019 39.1604V89.7465C21.9019 90.3355 21.9536 90.9123 22.0476 91.4744L6.9534 84.7861C3.54363 83.2754 1.99832 79.2623 3.50926 75.8404C3.5157 75.8255 3.52195 75.8105 3.5282 75.7957L13.0757 52.0683C13.3776 51.3177 13.0142 50.4646 12.2636 50.1624C11.5126 49.8605 10.6599 50.2241 10.3577 50.9745L0.818626 74.6798C-1.3263 79.5724 0.889329 85.3033 5.76649 87.4642L23.4665 95.3072C23.4882 95.3168 23.5103 95.3238 23.5321 95.3322C25.3286 98.1393 28.4345 100 31.9605 100H68.0934C73.6516 100 78.3473 95.3043 78.3473 89.7461V81.1523C78.3473 80.3433 77.6914 79.6875 76.8824 79.6875C76.0735 79.6875 75.4176 80.3433 75.4176 81.1523V89.7461C75.4176 93.7162 72.0635 97.0703 68.0934 97.0703H31.9605C28.0296 97.0703 24.8316 93.7848 24.8316 89.7461V39.16C24.8316 37.9026 25.1859 36.8356 25.8849 35.9889L36.7488 22.826C37.7599 21.601 39.147 20.8983 40.5542 20.8983H59.4996C59.7756 20.8983 60.0506 20.9262 60.3223 20.9789C59.4053 24.1061 57.1338 26.7155 54.0664 28.0231C53.2642 26.6815 51.7978 25.7811 50.1244 25.7811C47.5935 25.7811 45.5345 27.8401 45.5345 30.371C45.5345 32.9018 47.5935 34.9608 50.1244 34.9608C52.4648 34.9608 54.4004 33.1995 54.6787 30.9329C58.6238 29.4407 61.607 26.279 62.9361 22.4198C63.0637 22.5481 63.1871 22.6831 63.3051 22.826L74.169 35.9891C74.974 36.9645 75.4176 38.0907 75.4176 39.1602V74.3166C75.4174 75.1253 76.0733 75.7812 76.8823 75.7812ZM50.1244 32.0311C49.209 32.0311 48.4642 31.2864 48.4642 30.371C48.4642 29.4555 49.209 28.7108 50.1244 28.7108C51.0398 28.7108 51.7845 29.4555 51.7845 30.371C51.7845 31.2864 51.0398 32.0311 50.1244 32.0311Z" fill="#B3A278" fill-opacity="0.75"/>
<path d="M37.429 77.9297C37.8039 77.9297 38.1789 77.7867 38.4648 77.5006L63.4648 52.5005C64.0369 51.9285 64.0369 51.0009 63.4648 50.4291C62.8928 49.857 61.9652 49.857 61.3934 50.4291L36.3933 75.4291C35.4593 76.2996 36.1759 77.974 37.429 77.9297Z" fill="#B3A278" fill-opacity="0.75"/>
<path d="M40.5541 62.4998C44.0541 62.4998 46.9017 59.6521 46.9017 56.1521C46.9017 52.6521 44.0541 49.8044 40.5541 49.8044H40.3587C36.8587 49.8044 34.0111 52.6521 34.0111 56.1521C34.0111 59.6521 36.8587 62.4998 40.3587 62.4998H40.5541ZM36.9408 56.1521C36.9408 54.2675 38.4742 52.7341 40.3587 52.7341H40.5541C42.4386 52.7341 43.972 54.2675 43.972 56.1521C43.972 58.0367 42.4386 59.5701 40.5541 59.5701H40.3587C38.4742 59.5701 36.9408 58.0367 36.9408 56.1521Z" fill="#B3A278" fill-opacity="0.75"/>
<path d="M59.4994 77.9297H59.6947C63.1947 77.9297 66.0424 75.0821 66.0424 71.582C66.0424 68.082 63.1947 65.2344 59.6947 65.2344H59.4994C55.9994 65.2344 53.1517 68.082 53.1517 71.582C53.1517 75.0821 55.9994 77.9297 59.4994 77.9297ZM59.4994 68.1641H59.6947C61.5793 68.1641 63.1127 69.6975 63.1127 71.582C63.1127 73.4666 61.5793 75 59.6947 75H59.4994C57.6148 75 56.0814 73.4666 56.0814 71.582C56.0814 69.6975 57.6148 68.1641 59.4994 68.1641Z" fill="#B3A278" fill-opacity="0.75"/>
</svg>
