<svg width="100" height="65" viewBox="0 0 100 65" fill="none" xmlns="http://www.w3.org/2000/svg">
<path d="M76.6665 8.99372e-05H43.2998C35.9756 -0.0161861 28.8174 2.17701 22.7595 6.29322C21.4395 5.44605 19.9022 4.99683 18.3332 5.00009H4.99988C4.2821 5.00009 3.64571 5.45907 3.41866 6.13941C3.19161 6.82056 3.42598 7.57008 3.99972 8.00058L13.5782 15.1954C12.4185 16.8002 11.3931 18.4986 10.5118 20.2719L5.6379 30.0001H1.66654C0.746134 30.0001 -0.00012207 30.7463 -0.00012207 31.6668V38.3334C0.00557455 42.9338 3.73279 46.6611 8.33321 46.6668H24.9999V51.3339L20.135 62.6848C19.9177 63.1991 19.9722 63.7875 20.2806 64.253C20.5883 64.7185 21.1083 64.9993 21.6665 65.0001H29.9999C30.5378 65.0001 31.0424 64.7397 31.3549 64.3018L39.6882 52.6352C39.8908 52.3528 39.9999 52.0142 39.9999 51.6668V49.0235L44.7582 53.7835L41.7585 62.8069C41.5892 63.3139 41.6739 63.8713 41.9856 64.3059C42.2972 64.7397 42.7985 64.9985 43.3332 65.0001H49.9999C50.6346 65.0033 51.2165 64.6461 51.4997 64.0789L56.4997 54.0789C56.7544 53.5686 56.7308 52.964 56.4362 52.4749L52.9434 46.6668H57.7985L68.1851 54.0854L66.6853 63.0583C66.6039 63.5426 66.7406 64.0382 67.058 64.4125C67.3762 64.7861 67.8425 65.0017 68.3332 65.0001H74.9999C75.7445 65.0009 76.3988 64.5077 76.6031 63.7916L79.9364 52.1249C80.0796 51.6236 79.9795 51.0841 79.6662 50.6666L76.6665 46.6668C77.1662 46.6668 77.6545 46.6432 78.0996 46.6122L84.9999 50.9254V63.3334C84.9999 64.2538 85.7461 65.0001 86.6665 65.0001H93.3332C94.0282 65.0009 94.6508 64.5696 94.8949 63.9185L99.8949 50.5852C99.9649 50.398 99.9999 50.2003 99.9999 50.0001V23.3334C99.986 10.4526 89.5474 0.0139246 76.6665 8.99372e-05ZM53.0996 53.4067L48.9696 61.6667H45.6469L48.2469 53.8599C48.4463 53.2618 48.2909 52.6018 47.8449 52.155L42.3566 46.6668H49.0567L53.0996 53.4067ZM76.4997 52.0004L73.7434 61.6667H70.3018L71.6348 53.6085C71.7422 52.9819 71.4834 52.3487 70.9683 51.9768L63.5334 46.6668H72.4999L76.4997 52.0004ZM92.1784 61.6667H88.3332V50.0001C88.3332 49.4255 88.037 48.8917 87.5495 48.5865L80.8829 44.4198L74.9999 40.7439V35.0001H71.6665V41.6668C71.6665 42.2413 71.9628 42.776 72.4502 43.0803L72.8547 43.3334H42.9784L46.4786 40.4534C46.8627 40.1368 47.0848 39.6648 47.0848 39.1668V35.0001H43.7515V38.3798L37.2753 43.7135L37.285 43.7249C37.071 43.8933 36.9034 44.1122 36.7951 44.3621C36.7162 44.5655 36.6779 44.782 36.6828 45.0001H36.6665V51.1337L29.1413 61.6667H24.195L28.1949 52.3235C28.2852 52.1168 28.3324 51.893 28.3332 51.6668V45.0001C28.3332 44.0797 27.587 43.3334 26.6665 43.3334H8.33321C5.57198 43.3334 3.33321 41.0947 3.33321 38.3334V33.3334H6.66654C7.29805 33.3342 7.87504 32.9778 8.15824 32.4138L13.4919 21.7571C14.5246 19.6803 15.7738 17.7182 17.2183 15.9034C17.4974 15.551 17.6236 15.101 17.5658 14.655C17.5088 14.2091 17.2745 13.8054 16.9148 13.5352L9.99988 8.33342H18.3332C19.5523 8.34075 20.7274 8.79241 21.6364 9.6054C22.2224 10.1165 23.0842 10.1547 23.7133 9.69654C29.3993 5.54696 36.2605 3.31796 43.2998 3.33342H76.6665C87.4218 3.35051 96.2393 11.867 96.6299 22.6148L96.328 22.8818C91.459 27.2161 84.0298 26.9068 79.5385 22.1819C78.9021 21.5162 77.8474 21.4926 77.1817 22.1282C76.516 22.7646 76.4924 23.8201 77.128 24.485C82.2329 29.8658 90.4532 30.8318 96.6665 26.7815V49.6982L92.1784 61.6667Z" fill="#B3A278" fill-opacity="0.75"/>
<path d="M24.1665 26.6667C24.1665 28.0478 23.0476 29.1668 21.6665 29.1668C20.2855 29.1668 19.1665 28.0478 19.1665 26.6667C19.1665 25.2857 20.2855 24.1667 21.6665 24.1667C23.0476 24.1667 24.1665 25.2857 24.1665 26.6667Z" fill="#B3A278" fill-opacity="0.75"/>
</svg>
