<svg width="18" height="18" viewBox="0 0 18 18" fill="none" xmlns="http://www.w3.org/2000/svg">
<path d="M12.0622 6.6582C11.7755 6.6582 11.5432 6.83023 11.5432 7.04249V14.3056C11.5432 14.5177 11.7755 14.6899 12.0622 14.6899C12.3489 14.6899 12.5812 14.5177 12.5812 14.3056V7.04249C12.5812 6.83023 12.3489 6.6582 12.0622 6.6582Z" fill="white"/>
<path d="M5.93797 6.6582C5.65129 6.6582 5.41895 6.83023 5.41895 7.04249V14.3056C5.41895 14.5177 5.65129 14.6899 5.93797 14.6899C6.22465 14.6899 6.457 14.5177 6.457 14.3056V7.04249C6.457 6.83023 6.22465 6.6582 5.93797 6.6582Z" fill="white"/>
<path d="M1.47412 5.5981V15.0662C1.47412 15.6259 1.75127 16.1514 2.23543 16.5285C2.71735 16.9066 3.38803 17.1213 4.08993 17.1222H13.9101C14.6122 17.1213 15.2829 16.9066 15.7646 16.5285C16.2487 16.1514 16.5259 15.6259 16.5259 15.0662V5.5981C17.4883 5.40895 18.112 4.72053 17.9832 3.98933C17.8543 3.25827 17.0131 2.71141 16.0172 2.71126H13.3598V2.23089C13.3629 1.82694 13.1471 1.43904 12.7609 1.15368C12.3747 0.868459 11.85 0.709639 11.3044 0.712941H6.6956C6.15002 0.709639 5.62532 0.868459 5.23909 1.15368C4.85286 1.43904 4.63714 1.82694 4.64018 2.23089V2.71126H1.98281C0.986924 2.71141 0.145736 3.25827 0.0167908 3.98933C-0.111952 4.72053 0.51169 5.40895 1.47412 5.5981ZM13.9101 16.3536H4.08993C3.20252 16.3536 2.51217 15.7892 2.51217 15.0662V5.63187H15.4878V15.0662C15.4878 15.7892 14.7975 16.3536 13.9101 16.3536ZM5.67823 2.23089C5.67479 2.03079 5.78102 1.83819 5.97282 1.69694C6.16441 1.55568 6.42514 1.47807 6.6956 1.48152H11.3044C11.5749 1.47807 11.8356 1.55568 12.0272 1.69694C12.219 1.83804 12.3252 2.03079 12.3218 2.23089V2.71126H5.67823V2.23089ZM1.98281 3.47984H16.0172C16.5332 3.47984 16.9514 3.78953 16.9514 4.17157C16.9514 4.55361 16.5332 4.86329 16.0172 4.86329H1.98281C1.46682 4.86329 1.04856 4.55361 1.04856 4.17157C1.04856 3.78953 1.46682 3.47984 1.98281 3.47984Z" fill="white"/>
<path d="M8.99992 6.6582C8.71324 6.6582 8.4809 6.83023 8.4809 7.04249V14.3056C8.4809 14.5177 8.71324 14.6899 8.99992 14.6899C9.2866 14.6899 9.51894 14.5177 9.51894 14.3056V7.04249C9.51894 6.83023 9.2866 6.6582 8.99992 6.6582Z" fill="white"/>
</svg>
