<svg width="66" height="66" viewBox="0 0 66 66" fill="none" xmlns="http://www.w3.org/2000/svg">
<g clip-path="url(#clip0)">
<path d="M55.2726 58.4029V64.9001C55.2726 65.5075 54.7802 66 54.1728 66C53.5653 66 53.0729 65.5075 53.0729 64.9001V58.4029C53.0729 53.3441 48.9792 49.2503 43.92 49.2503C41.5263 49.2503 39.3543 48.0309 38.1102 45.988C37.7941 45.4692 37.9585 44.7925 38.4774 44.4766C38.9958 44.1602 39.6727 44.3248 39.9888 44.8438C40.8305 46.2257 42.3002 47.0506 43.92 47.0506C50.1946 47.0503 55.2726 52.1279 55.2726 58.4029ZM34.7701 46.5371C32.4676 47.0389 30.1306 46.5296 28.2766 45.2567C28.5946 44.553 28.79 43.7959 28.852 43.0114C38.2798 45.7865 47.7109 38.671 47.7109 28.8967C47.7109 19.5683 47.7223 19.7168 47.6845 19.3343C47.5398 17.8182 45.3492 18.0245 45.4953 19.55C45.52 19.7994 45.5112 20.0176 45.5112 28.8966C45.5112 35.7953 39.8987 41.4078 33 41.4078C26.1012 41.4078 20.4888 35.7953 20.4888 28.8966C20.4888 26.4188 20.4624 24.5 20.4537 23.0612C20.4314 19.4516 23.7694 16.7087 27.3816 17.5746C32.476 18.7962 34.5292 21.9737 41.059 21.6696C41.6657 21.6412 42.1345 21.1263 42.1061 20.5194C42.0776 19.9127 41.5659 19.447 40.9558 19.4723C35.0693 19.7491 33.4376 16.765 27.8946 15.4356C22.8829 14.2334 18.2233 18.0465 18.2539 23.0749C18.2614 24.2443 18.2768 25.5251 18.2845 27.1026C17.5522 26.7208 17.0515 25.9636 17.0515 25.0925C17.0515 25.0673 17.0516 19.3794 17.0512 19.3544C16.9961 16.8613 17.3512 10.5971 21.8294 6.2803C26.8326 1.45758 34.6607 1.45579 40.7471 3.57733L39.8679 3.93919C38.8182 4.37103 39.0376 5.92861 40.1694 6.04987L42.1028 6.25693C45.8237 6.65536 49.1143 8.59569 51.2225 11.6108C49.8388 13.2921 49.0857 15.3849 49.0857 17.5897V25.0923C49.0857 25.6997 49.5781 26.1922 50.1855 26.1922C50.7929 26.1922 51.2854 25.6997 51.2854 25.0923V17.5897C51.2854 15.6783 52.0236 13.8767 53.3639 12.5171C53.7371 12.139 53.7828 11.5288 53.5226 11.1088C51.3297 7.59205 48.0666 5.32766 44.3425 4.41943C44.945 3.90551 44.8265 2.95067 44.1292 2.59802C40.9316 0.982975 36.3704 -0.150732 32.0297 0.016313C21.0485 0.441969 14.6203 8.64299 14.852 19.3908V25.0926C14.852 27.1968 16.3242 28.9652 18.3003 29.44C18.5053 35.0578 21.8748 39.8817 26.6758 42.1773V42.4667C26.6758 45.0025 24.621 47.0507 22.08 47.0507C15.7924 47.0507 10.7274 52.1406 10.7274 58.403V64.9002C10.7274 65.5076 11.2199 66.0001 11.8273 66.0001C12.4347 66.0001 12.9272 65.5076 12.9272 64.9002V58.403C12.9272 53.3445 17.0208 49.2505 22.08 49.2505C23.953 49.2505 25.7366 48.4998 27.0559 47.0859C29.4007 48.6864 32.3448 49.3172 35.2385 48.6865C35.832 48.5573 36.2083 47.9712 36.079 47.3777C35.9496 46.784 35.3632 46.4073 34.7701 46.5371ZM44.1363 60.363H40.8366C40.2292 60.363 39.7368 60.8555 39.7368 61.4629C39.7368 62.0703 40.2292 62.5628 40.8366 62.5628H44.1363C44.7437 62.5628 45.2362 62.0703 45.2362 61.4629C45.2362 60.8555 44.7437 60.363 44.1363 60.363Z" fill="#B2A278"/>
</g>
<defs>
<clipPath id="clip0">
<rect width="66" height="66" fill="white"/>
</clipPath>
</defs>
</svg>
