<svg width="66" height="66" viewBox="0 0 66 66" fill="none" xmlns="http://www.w3.org/2000/svg">
<path d="M33 0C14.7746 0 0 14.7746 0 33C0 51.2254 14.7746 66 33 66C51.2254 66 66 51.2254 66 33C65.9794 14.7832 51.2168 0.020625 33 0ZM33 63.8C15.9896 63.8 2.2 50.0104 2.2 33C2.2 15.9896 15.9896 2.2 33 2.2C50.0104 2.2 63.8 15.9896 63.8 33C63.7806 50.0023 50.0023 63.7806 33 63.8Z" fill="#B2A278"/>
<path d="M33 5.5C17.8122 5.5 5.5 17.8122 5.5 33C5.5 48.1878 17.8122 60.5 33 60.5C48.1878 60.5 60.5 48.1878 60.5 33C60.4831 17.8192 48.1808 5.51691 33 5.5ZM33 58.3C19.0273 58.3 7.7 46.9728 7.7 33C7.7 19.0273 19.0273 7.7 33 7.7C46.9728 7.7 58.3 19.0273 58.3 33C58.2842 46.9663 46.9663 58.2842 33 58.3Z" fill="#B2A278"/>
<path d="M34.1 11H31.9V13.2H34.1V11Z" fill="#B2A278"/>
<path d="M34.1 52.8008H31.9V55.0008H34.1V52.8008Z" fill="#B2A278"/>
<path d="M22.9499 13.3984L21.0459 14.498L22.1456 16.4021L24.0496 15.3024L22.9499 13.3984Z" fill="#B2A278"/>
<path d="M43.845 49.5917L41.941 50.6914L43.0406 52.5954L44.9447 51.4958L43.845 49.5917Z" fill="#B2A278"/>
<path d="M14.4964 21.0479L13.3964 22.9531L15.3016 24.0531L16.4016 22.1479L14.4964 21.0479Z" fill="#B2A278"/>
<path d="M50.6925 41.9512L49.5925 43.8564L51.4977 44.9565L52.5977 43.0512L50.6925 41.9512Z" fill="#B2A278"/>
<path d="M13.2 31.8994H11V34.0994H13.2V31.8994Z" fill="#B2A278"/>
<path d="M55 31.8994H52.8V34.0994H55V31.8994Z" fill="#B2A278"/>
<path d="M15.3025 41.95L13.3971 43.0498L14.4969 44.9552L16.4023 43.8554L15.3025 41.95Z" fill="#B2A278"/>
<path d="M51.4975 21.0475L49.5923 22.1475L50.6923 24.0527L52.5975 22.9527L51.4975 21.0475Z" fill="#B2A278"/>
<path d="M22.14 49.596L21.0403 51.5L22.9443 52.5997L24.044 50.6956L22.14 49.596Z" fill="#B2A278"/>
<path d="M43.0457 13.4007L41.946 15.3047L43.85 16.4044L44.9497 14.5003L43.0457 13.4007Z" fill="#B2A278"/>
<path d="M31.9 15.3994V32.3768L21.4335 38.6567L22.5665 40.5421L33.5665 33.9421C33.8975 33.7433 34.1 33.3855 34.1 32.9994V15.3994H31.9Z" fill="#B2A278"/>
</svg>
