<svg width="66" height="66" viewBox="0 0 66 66" fill="none" xmlns="http://www.w3.org/2000/svg">
<path d="M63.4219 66C61.9979 66 60.8438 64.8459 60.8438 63.4219V2.57812C60.8438 1.15411 61.9979 0 63.4219 0C64.8459 0 66 1.15411 66 2.57812V63.4219C66 64.8459 64.8459 66 63.4219 66ZM55.8164 63.4219V13.0195C55.8164 11.5955 54.6623 10.4414 53.2383 10.4414C51.8143 10.4414 50.6602 11.5955 50.6602 13.0195V63.4219C50.6602 64.8459 51.8143 66 53.2383 66C54.6623 66 55.8164 64.8459 55.8164 63.4219ZM45.6328 63.4219V23.332C45.6328 21.908 44.4787 20.7539 43.0547 20.7539C41.6307 20.7539 40.4766 21.908 40.4766 23.332V63.4219C40.4766 64.8459 41.6307 66 43.0547 66C44.4787 66 45.6328 64.8459 45.6328 63.4219ZM35.4492 63.4219V33.6445C35.4492 32.2205 34.2951 31.0664 32.8711 31.0664C31.4471 31.0664 30.293 32.2205 30.293 33.6445V63.4219C30.293 64.8459 31.4471 66 32.8711 66C34.2951 66 35.4492 64.8459 35.4492 63.4219ZM25.2656 63.4219V43.957C25.2656 42.533 24.1115 41.3789 22.6875 41.3789C21.2635 41.3789 20.1094 42.533 20.1094 43.957V63.4219C20.1094 64.8459 21.2635 66 22.6875 66C24.1115 66 25.2656 64.8459 25.2656 63.4219ZM15.082 63.4219V52.9805C15.082 51.5565 13.9279 50.4023 12.5039 50.4023C11.0799 50.4023 9.92578 51.5565 9.92578 52.9805V63.4219C9.92578 64.8459 11.0799 66 12.5039 66C13.9279 66 15.082 64.8459 15.082 63.4219ZM5.15625 63.4219C5.15625 61.9979 4.00214 60.8438 2.57812 60.8438C1.15411 60.8438 0 61.9979 0 63.4219C0 64.8459 1.15411 66 2.57812 66C4.00214 66 5.15625 64.8459 5.15625 63.4219Z" fill="#B2A278"/>
</svg>
