<svg width="66" height="66" viewBox="0 0 66 66" fill="none" xmlns="http://www.w3.org/2000/svg">
<g clip-path="url(#clip0)">
<path d="M33 66C46.0804 66 56.7208 55.3596 56.7208 42.2792C56.7208 42.2699 56.7156 42.2627 56.7156 42.2544V28.9018C56.7156 28.8925 56.7208 28.8853 56.7208 28.8771C56.7208 12.9546 43.7662 0 27.8437 0C27.2735 0 26.8125 0.462 26.8125 1.03125C26.8125 8.41809 20.8085 14.4262 13.4248 14.4365C13.4196 14.4365 13.4145 14.4334 13.4093 14.4334C11.1354 14.4334 9.28536 16.2824 9.28433 18.5563V18.5573V42.2544C9.28433 42.2637 9.27917 42.2709 9.27917 42.2792C9.27917 55.3596 19.9196 66 33 66ZM13.3939 16.4979C13.398 16.4979 13.4021 16.5 13.4062 16.5C21.5799 16.5 28.2748 10.1238 28.8214 2.08725C43.1485 2.60391 54.6459 14.4076 54.6573 28.8544C54.6573 28.8626 54.6531 28.8688 54.6531 28.876V42.2782C54.6531 42.2854 54.6573 42.2916 54.6573 42.2988C54.6459 54.2324 44.9346 63.9375 33 63.9375C21.0653 63.9375 11.354 54.2324 11.3427 42.2998C11.3427 42.2926 11.3468 42.2864 11.3468 42.2792V18.5584C11.3468 17.4261 12.2646 16.5062 13.3939 16.4979Z" fill="#B2A278"/>
<path d="M33 61.872C43.8044 61.872 52.5938 53.0827 52.5938 42.2783C52.5938 31.4749 43.8044 22.6855 33 22.6855C22.1956 22.6855 13.4062 31.4749 13.4062 42.2783C13.4062 53.0827 22.1956 61.872 33 61.872ZM33 24.748C42.6669 24.748 50.5312 32.6113 50.5312 42.2783C50.5312 51.9452 42.6669 59.8095 33 59.8095C23.3331 59.8095 15.4688 51.9452 15.4688 42.2783C15.4688 32.6124 23.3331 24.748 33 24.748Z" fill="#B2A278"/>
<path d="M21.6542 47.4378C22.2245 47.4378 22.6854 46.9768 22.6854 46.4065V45.8022L24.0188 47.1356C24.2199 47.3367 24.4839 47.4378 24.7479 47.4378C25.0119 47.4378 25.2759 47.3367 25.477 47.1356C25.8802 46.7324 25.8802 46.0806 25.477 45.6774L23.1124 43.3128L25.477 40.9481C25.8802 40.5449 25.8802 39.8931 25.477 39.4899C25.0738 39.0867 24.422 39.0867 24.0188 39.4899L22.6854 40.8233V40.219C22.6854 39.6487 22.2245 39.1878 21.6542 39.1878C21.0839 39.1878 20.6229 39.6487 20.6229 40.219V46.4065C20.6229 46.9768 21.0839 47.4378 21.6542 47.4378Z" fill="#B2A278"/>
<path d="M29.9042 47.4375C31.0025 47.4375 32.0296 46.8466 32.5813 45.8948C32.868 45.4018 32.6999 44.7717 32.208 44.4861C31.7181 44.2004 31.086 44.3654 30.7993 44.8594C30.6137 45.178 30.2713 45.375 29.9052 45.375C29.336 45.375 28.874 44.913 28.874 44.3438V42.2812C28.874 41.712 29.336 41.25 29.9052 41.25C30.2734 41.25 30.6168 41.448 30.8003 41.7687C31.0829 42.2627 31.713 42.4318 32.208 42.1493C32.702 41.8667 32.8731 41.2356 32.5885 40.7416C32.0378 39.7825 31.0097 39.1875 29.9042 39.1875C28.1985 39.1875 26.8104 40.5756 26.8104 42.2812V44.3438C26.8104 46.0494 28.1985 47.4375 29.9042 47.4375Z" fill="#B2A278"/>
<path d="M34.1529 47.3611C34.2818 47.4137 34.4148 47.4384 34.5468 47.4384C34.9521 47.4384 35.3368 47.1992 35.5007 46.8011L36.0886 45.3759H38.1521L38.7533 46.8063C38.9193 47.2012 39.3019 47.4374 39.7041 47.4374C39.8382 47.4374 39.9733 47.4116 40.1042 47.357C40.6291 47.1363 40.8756 46.5309 40.6549 46.006L38.052 39.8185C38.0407 39.7917 38.018 39.7752 38.0046 39.7494C37.9561 39.6556 37.9025 39.5628 37.8262 39.4875C37.7643 39.4266 37.688 39.3875 37.6148 39.3452C37.5725 39.3204 37.5416 39.2833 37.4952 39.2647C37.4818 39.2596 37.4684 39.2616 37.4539 39.2565C37.3405 39.2152 37.2198 39.1895 37.0961 39.1895C37.0146 39.1905 36.9383 39.2173 36.8599 39.2369C36.8063 39.2493 36.7527 39.2472 36.7011 39.2678C36.6516 39.2895 36.6176 39.3287 36.5722 39.3555C36.5031 39.3978 36.4289 39.4339 36.3711 39.4926C36.3041 39.5607 36.2597 39.6442 36.2133 39.7278C36.1937 39.7628 36.1628 39.7876 36.1484 39.8257L33.594 46.0143C33.3764 46.5402 33.627 47.1435 34.1529 47.3611ZM36.9393 43.3134L37.1095 42.9009L37.2838 43.3134H36.9393Z" fill="#B2A278"/>
<path d="M42.7979 47.4355H45.8916C46.4619 47.4355 46.9229 46.9746 46.9229 46.4043C46.9229 45.834 46.4619 45.373 45.8916 45.373H43.8291V40.2168C43.8291 39.6465 43.3681 39.1855 42.7979 39.1855C42.2276 39.1855 41.7666 39.6465 41.7666 40.2168V46.4043C41.7666 46.9746 42.2276 47.4355 42.7979 47.4355Z" fill="#B2A278"/>
</g>
<defs>
<clipPath id="clip0">
<rect width="66" height="66" fill="white"/>
</clipPath>
</defs>
</svg>
