<svg width="66" height="66" viewBox="0 0 66 66" fill="none" xmlns="http://www.w3.org/2000/svg">
<path d="M46.7368 22.2445L46.0306 19.9202C45.1336 17.28 42.266 15.8669 39.6257 16.7639C38.1405 17.2685 36.974 18.435 36.4694 19.9202L35.7632 22.2445C35.169 24.2047 35.0442 26.2773 35.3991 28.2945C35.7228 29.9929 36.8011 31.4521 38.3295 32.26L37.5386 49.9403C37.4327 50.9272 37.7528 51.9124 38.4186 52.6485C39.8504 54.2147 42.2809 54.3236 43.847 52.8918C43.9317 52.8144 44.0128 52.7332 44.0902 52.6485C44.7411 51.9333 45.0607 50.9769 44.9702 50.014L44.1749 32.2578C45.7013 31.4495 46.7778 29.9913 47.1009 28.2945C47.4558 26.2773 47.3311 24.2047 46.7368 22.2445ZM44.9339 27.9117C44.6958 29.1319 43.8262 30.133 42.6514 30.5396C42.2055 30.7072 41.9183 31.1428 41.9397 31.6187L42.7757 50.1878C42.8142 50.5521 42.694 50.9152 42.4457 51.1844C41.7834 51.8402 40.7167 51.8402 40.0543 51.1844C39.7936 50.8935 39.6752 50.5019 39.7309 50.1152L40.5603 31.6187C40.5818 31.1428 40.2945 30.7072 39.8486 30.5396C38.6738 30.133 37.8043 29.1319 37.5661 27.9117C37.2719 26.237 37.3755 24.5164 37.8686 22.8891L38.5748 20.5637C39.1212 19.0863 40.7619 18.3316 42.2395 18.878C43.0206 19.1669 43.6363 19.7827 43.9252 20.5637L44.6314 22.8891C45.1239 24.5166 45.2276 26.237 44.9339 27.9117Z" fill="#B2A278"/>
<path d="M29.7 16.5C29.0925 16.5 28.6 16.9925 28.6 17.6V27.0446L25.6223 30.0223C25.402 30.2417 25.2848 30.5444 25.3 30.855L26.2625 50.105C26.2854 50.5201 26.1347 50.9262 25.8467 51.2259C25.2445 51.8334 24.2639 51.8378 23.6563 51.2355C23.653 51.2324 23.6498 51.2291 23.6467 51.2259C23.3585 50.9262 23.2079 50.5201 23.2309 50.105L24.2 30.855C24.2154 30.5445 24.0986 30.242 23.8788 30.0223L20.9 27.0446V17.6C20.9 16.9925 20.4074 16.5 19.8 16.5C19.1925 16.5 18.7 16.9925 18.7 17.6V27.5C18.7 27.7918 18.816 28.0715 19.0223 28.2777L21.9769 31.2334L21.0386 49.9983C20.9387 52.048 22.5194 53.7907 24.5691 53.8905C26.6189 53.9903 28.3615 52.4096 28.4614 50.3599C28.4673 50.2395 28.4673 50.1189 28.4614 49.9984L27.5231 31.2335L30.4777 28.2778C30.6839 28.0716 30.8 27.7919 30.8 27.5001V17.6001C30.8 16.9925 30.3074 16.5 29.7 16.5Z" fill="#B2A278"/>
<path d="M23.1 16.5C22.4925 16.5 22 16.9925 22 17.6V26.4C22 27.0075 22.4925 27.5 23.1 27.5C23.7075 27.5 24.2 27.0075 24.2 26.4V17.6C24.2 16.9925 23.7075 16.5 23.1 16.5Z" fill="#B2A278"/>
<path d="M26.4001 16.5C25.7926 16.5 25.3 16.9925 25.3 17.6V26.4C25.3 27.0075 25.7926 27.5 26.4001 27.5C27.0075 27.5 27.5001 27.0075 27.5001 26.4V17.6C27.5001 16.9925 27.0075 16.5 26.4001 16.5Z" fill="#B2A278"/>
<path d="M33 0C14.7746 0 0 14.7746 0 33C0 51.2254 14.7746 66 33 66C51.2254 66 66 51.2254 66 33C65.9794 14.7832 51.2168 0.020625 33 0ZM33 63.8C15.9896 63.8 2.2 50.0104 2.2 33C2.2 15.9896 15.9896 2.2 33 2.2C50.0104 2.2 63.8 15.9896 63.8 33C63.7806 50.0023 50.0023 63.7806 33 63.8Z" fill="#B2A278"/>
<path d="M36.5707 53.6485C36.5117 53.0439 35.9736 52.6016 35.3689 52.6606C35.3547 52.6619 35.3406 52.6636 35.3264 52.6655L35.3308 52.6644C33.7822 52.8443 32.2177 52.8443 30.669 52.6644C30.0654 52.5936 29.5188 53.0255 29.448 53.6291C29.3772 54.2327 29.8091 54.7793 30.4127 54.8501C32.1302 55.0507 33.8652 55.0507 35.5827 54.8501C36.1873 54.7912 36.6296 54.2532 36.5707 53.6485Z" fill="#B2A278"/>
<path d="M49.8299 18.8258C49.4396 18.3603 48.7458 18.2994 48.2803 18.6899C48.2788 18.6911 48.2773 18.6925 48.2756 18.6937C47.8113 19.0853 47.7522 19.7792 48.1436 20.2437C54.7759 28.1169 54.2686 39.7589 46.9765 47.0254C46.5462 47.4542 46.5449 48.1509 46.9738 48.5813C47.4027 49.0117 48.0994 49.0129 48.5297 48.5841C56.6336 40.511 57.1987 27.5747 49.8299 18.8258Z" fill="#B2A278"/>
<path d="M38.1888 11.6141C33.8898 10.5839 29.3812 10.8608 25.2407 12.4094C24.672 12.6233 24.3845 13.2577 24.5983 13.8262C24.7594 14.2548 25.1692 14.5385 25.6269 14.5389C25.7585 14.5382 25.8889 14.5142 26.0118 14.4675C29.7405 13.0732 33.8006 12.8241 37.6718 13.7525C38.2624 13.8953 38.8568 13.5324 38.9995 12.9418C39.1422 12.3513 38.7793 11.7569 38.1888 11.6141Z" fill="#B2A278"/>
<path d="M18.9739 46.9697C15.2656 43.2678 13.1873 38.2395 13.2 32.9997C13.1891 28.8133 14.5151 24.7329 16.9851 21.3529C17.3501 20.8672 17.2524 20.1777 16.7667 19.8126C16.2811 19.4475 15.5915 19.5453 15.2264 20.0309C15.22 20.0396 15.2136 20.0483 15.2075 20.0571C8.84768 28.8004 9.7835 40.8689 17.4152 48.5273C17.8453 48.9576 18.5429 48.9579 18.9733 48.5278C19.4037 48.0977 19.404 47.4 18.9739 46.9697Z" fill="#B2A278"/>
</svg>
