<svg width="28" height="25" viewBox="0 0 28 25" fill="none" xmlns="http://www.w3.org/2000/svg">
<path d="M21.6282 18.188C19.7501 18.188 18.2222 19.7159 18.2222 21.594C18.2222 23.472 19.7501 25 21.6282 25C23.5062 25 25.0341 23.472 25.0341 21.594C25.0341 19.7159 23.5062 18.188 21.6282 18.188ZM21.6282 22.9564C20.8768 22.9564 20.2658 22.3453 20.2658 21.594C20.2658 20.8426 20.8768 20.2316 21.6282 20.2316C22.3795 20.2316 22.9905 20.8426 22.9905 21.594C22.9905 22.3453 22.3795 22.9564 21.6282 22.9564Z" fill="white"/>
<path d="M27.0989 5.02415C26.9054 4.77654 26.6087 4.63212 26.2944 4.63212H6.30726L5.38763 0.78438C5.27762 0.324593 4.86649 4.66642e-09 4.39374 4.66642e-09H1.0218C0.457439 -5.33472e-05 0 0.457386 0 1.02174C0 1.5861 0.457439 2.04354 1.0218 2.04354H3.58722L6.90806 15.9387C7.01807 16.3988 7.4292 16.723 7.90195 16.723H23.808C24.2777 16.723 24.6871 16.4029 24.7998 15.9471L27.2862 5.89944C27.3615 5.59432 27.2923 5.27175 27.0989 5.02415ZM23.0086 14.6795H8.70847L6.79564 6.67571H24.9888L23.0086 14.6795Z" fill="white"/>
<path d="M9.26438 18.188C7.38629 18.188 5.8584 19.7159 5.8584 21.594C5.8584 23.472 7.38634 25 9.26438 25C11.1424 25 12.6704 23.472 12.6704 21.594C12.6704 19.7159 11.1424 18.188 9.26438 18.188ZM9.26438 22.9564C8.51303 22.9564 7.90199 22.3453 7.90199 21.594C7.90199 20.8426 8.51303 20.2316 9.26438 20.2316C10.0157 20.2316 10.6268 20.8426 10.6268 21.594C10.6268 22.3453 10.0157 22.9564 9.26438 22.9564Z" fill="white"/>
</svg>
